<?xml version="1.0" standalone="no"?>
<!DOCTYPE svg PUBLIC "-//W3C//DTD SVG 20010904//EN"
 "http://www.w3.org/TR/2001/REC-SVG-20010904/DTD/svg10.dtd">
<svg version="1.0" xmlns="http://www.w3.org/2000/svg"
 width="480.000000pt" height="480.000000pt" viewBox="0 0 480.000000 480.000000"
 preserveAspectRatio="xMidYMid meet">
<metadata>
Created by potrace 1.14, written by Peter Selinger 2001-2017
</metadata>
<g transform="translate(0.000000,480.000000) scale(0.100000,-0.100000)"
fill="#000000" stroke="none">
<path d="M2258 4395 c-2 -2 -32 -5 -68 -9 -75 -6 -107 -12 -205 -32 -38 -8
-81 -17 -95 -20 -124 -26 -413 -151 -551 -240 -183 -118 -399 -312 -514 -463
-214 -281 -362 -626 -401 -936 -3 -27 -8 -59 -11 -70 -12 -50 -10 -367 3 -465
23 -167 82 -403 124 -495 5 -11 28 -60 50 -110 47 -101 159 -295 172 -295 4 0
8 -5 8 -11 0 -33 246 -300 363 -394 34 -27 64 -52 67 -55 3 -3 12 -9 21 -15 9
-5 43 -28 75 -50 82 -56 103 -68 239 -134 288 -141 569 -201 910 -195 88 1
171 5 184 8 13 3 49 8 80 12 86 9 307 68 411 110 90 35 269 121 280 133 3 4
22 15 43 26 79 41 265 190 367 293 214 218 305 354 450 677 47 103 113 382
129 538 9 93 7 357 -3 432 -9 60 -23 149 -31 190 -20 102 -86 295 -142 414
-50 109 -162 301 -175 301 -4 0 -8 5 -8 11 0 33 -246 300 -363 394 -34 27 -64
52 -67 55 -3 3 -12 10 -21 15 -9 6 -43 28 -75 50 -219 150 -526 270 -794 310
-25 4 -58 9 -75 12 -31 5 -372 12 -377 8z"/>
</g>
</svg>
