<?xml version="1.0" standalone="no"?>
<!DOCTYPE svg PUBLIC "-//W3C//DTD SVG 20010904//EN"
 "http://www.w3.org/TR/2001/REC-SVG-20010904/DTD/svg10.dtd">
<svg version="1.0" xmlns="http://www.w3.org/2000/svg"
 width="700.000000pt" height="700.000000pt" viewBox="0 0 700.000000 700.000000"
 preserveAspectRatio="xMidYMid meet">
<metadata>
Created by potrace 1.14, written by Peter Selinger 2001-2017
</metadata>
<g transform="translate(0.000000,700.000000) scale(0.100000,-0.100000)"
fill="#000000" stroke="none">
<path d="M3328 6995 c-2 -1 -46 -5 -98 -9 -52 -3 -106 -8 -120 -10 -14 -3 -45
-7 -70 -10 -25 -4 -56 -8 -70 -10 -14 -3 -41 -7 -60 -10 -64 -10 -184 -36
-295 -66 -749 -199 -1404 -632 -1877 -1241 -78 -101 -213 -300 -259 -384 -105
-190 -133 -248 -225 -460 -90 -209 -190 -594 -220 -845 -3 -25 -7 -58 -10 -75
-27 -197 -23 -581 7 -815 16 -119 18 -129 39 -240 154 -786 582 -1506 1200
-2021 114 -94 312 -235 425 -301 52 -31 319 -165 342 -172 21 -7 21 -6 8 51
-7 32 -18 92 -25 133 -6 41 -14 86 -16 100 -12 65 -19 212 -19 385 0 279 18
419 90 705 31 124 112 375 134 417 5 10 28 63 51 118 117 276 315 615 545 930
143 196 415 529 564 690 25 28 66 73 90 100 58 66 200 218 460 495 323 344
374 400 505 553 270 315 438 564 529 787 111 270 108 531 -8 735 -82 143 -176
238 -269 273 -127 47 -417 124 -551 146 -70 12 -244 36 -300 42 -60 6 -491 14
-497 9z"/>
<path d="M4928 6678 c6 -7 36 -39 66 -72 107 -113 184 -252 211 -382 30 -147
7 -361 -55 -509 -72 -170 -155 -314 -278 -485 -42 -58 -79 -107 -82 -110 -3
-3 -21 -25 -40 -50 -19 -25 -37 -47 -40 -50 -3 -3 -45 -52 -95 -110 -49 -58
-108 -125 -131 -150 -22 -25 -69 -76 -104 -115 -35 -38 -87 -95 -116 -125 -29
-30 -69 -74 -91 -96 -70 -75 -267 -286 -304 -325 -32 -34 -79 -85 -279 -304
-31 -33 -109 -123 -175 -200 -452 -528 -758 -987 -949 -1425 -21 -47 -42 -94
-47 -105 -38 -85 -128 -358 -154 -468 -17 -72 -55 -270 -60 -311 -4 -27 -8
-57 -10 -68 -23 -120 -24 -540 0 -678 2 -14 6 -43 10 -65 10 -70 26 -159 37
-202 9 -35 16 -44 44 -53 29 -10 41 -9 77 8 23 11 71 32 107 47 332 140 750
424 1020 695 114 113 177 181 436 469 27 30 68 74 91 98 23 23 39 43 35 44
-13 1 -136 -3 -192 -6 -30 -2 -127 -6 -215 -10 -88 -4 -182 -8 -210 -10 -27
-2 -111 -6 -185 -9 -74 -4 -150 -9 -167 -11 -18 -2 -35 0 -37 4 -11 18 170
278 440 631 159 207 719 925 738 947 6 6 54 66 106 133 183 234 910 1142 910
1137 0 -6 -546 -1109 -790 -1597 -73 -146 -136 -275 -141 -287 -8 -21 -7 -21
24 -9 18 7 41 17 52 21 11 4 25 9 31 10 6 2 27 10 45 18 19 8 117 47 219 87
102 39 193 76 204 81 10 6 26 12 35 14 9 2 140 53 291 114 151 60 277 108 278
106 4 -4 -129 -266 -139 -275 -3 -3 -21 -34 -40 -70 -19 -36 -36 -67 -39 -70
-3 -3 -19 -27 -35 -55 -188 -329 -611 -869 -931 -1189 -255 -255 -523 -467
-803 -636 -114 -68 -338 -182 -441 -224 -36 -15 -74 -31 -85 -36 -94 -45 -304
-111 -570 -181 l-50 -13 87 -28 c90 -28 225 -66 268 -74 14 -3 33 -7 42 -10
10 -3 30 -7 45 -10 16 -2 48 -9 73 -14 25 -5 61 -12 80 -15 19 -2 46 -7 60 -9
26 -5 69 -10 205 -23 147 -14 575 -7 670 11 11 2 47 7 80 11 83 11 95 12 135
20 406 74 777 207 1120 403 893 509 1506 1357 1710 2367 15 77 31 167 35 200
4 33 9 69 11 80 10 54 19 249 18 410 0 216 -13 386 -40 535 -1 8 -6 35 -9 60
-4 25 -19 101 -35 170 -200 874 -727 1640 -1470 2137 -128 85 -254 154 -424
232 -97 45 -103 47 -88 29z"/>
</g>
</svg>
